<svg xmlns="http://www.w3.org/2000/svg" viewBox="0 0 64 64" role="img" aria-labelledby="title desc">
  <title id="title">InkFlow</title>
  <desc id="desc">A book page shaped into a flowing ink path.</desc>
  <rect width="64" height="64" rx="14" fill="#f4ead7"/>
  <path d="M13 15.5c0-2.2 1.8-4 4-4h22c6.6 0 12 5.4 12 12v25c0 2.1-2.4 3.3-4.1 2L42 46.9l-4.9 3.6c-1.7 1.3-4.1.1-4.1-2V23.5c0-4.4-3.6-8-8-8H13Z" fill="#8a2e1a"/>
  <path d="M13 15.5h12c4.4 0 8 3.6 8 8v25c0 2.1-2.4 3.3-4.1 2L24 46.9l-4.9 3.6c-1.7 1.3-4.1.1-4.1-2v-29c0-2.2-2-4-2-4Z" fill="#d7b37a"/>
  <path d="M24 21c9.8 3.4 17.3 11 20.7 21" fill="none" stroke="#f4ead7" stroke-width="4.2" stroke-linecap="round"/>
  <path d="M25 31c4.9 1.7 8.9 5.7 10.6 10.6" fill="none" stroke="#f4ead7" stroke-width="3.2" stroke-linecap="round" opacity=".9"/>
  <path d="M20 22.5c0-1.4 1.1-2.5 2.5-2.5S25 21.1 25 22.5 23.9 25 22.5 25 20 23.9 20 22.5Z" fill="#2d1f18"/>
</svg>
